SplineFontDB: 3.2
FontName: Untitled1
FullName: Untitled1
FamilyName: Untitled1
Weight: Regular
Copyright: Copyright (c) 2025, dsmit
UComments: "2025-4-19: Created with FontForge (http://fontforge.org)"
Version: 001.000
ItalicAngle: 0
UnderlinePosition: -100
UnderlineWidth: 50
Ascent: 800
Descent: 200
InvalidEm: 0
LayerCount: 2
Layer: 0 0 "Back" 1
Layer: 1 0 "Fore" 0
XUID: [1021 353 1332196575 25666]
StyleMap: 0x0000
FSType: 0
OS2Version: 0
OS2_WeightWidthSlopeOnly: 0
OS2_UseTypoMetrics: 1
CreationTime: 1745088296
ModificationTime: 1745170249
OS2TypoAscent: 0
OS2TypoAOffset: 1
OS2TypoDescent: 0
OS2TypoDOffset: 1
OS2TypoLinegap: 90
OS2WinAscent: 0
OS2WinAOffset: 1
OS2WinDescent: 0
OS2WinDOffset: 1
HheadAscent: 0
HheadAOffset: 1
HheadDescent: 0
HheadDOffset: 1
DEI: 91125
Encoding: ISO8859-1
UnicodeInterp: none
NameList: AGL For New Fonts
DisplaySize: -48
AntiAlias: 1
FitToEm: 0
WinInfo: 64 16 3
AnchorClass2: "asd""" 
BeginChars: 256 26

StartChar: A
Encoding: 65 65 0
Width: 813
Flags: W
LayerCount: 2
Fore
SplineSet
514.72265625 765.833007812 m 1
 730.610351562 -44.8193359375 l 1
 781.166015625 -88.5693359375 816.3046875 -101 796.444335938 -179.958007812 c 0
 759.569335938 -214.541015625 741.3046875 -192.041015625 708.735351562 -192.110351562 c 0
 673.944335938 -192.110351562 638.52734375 -191.208007812 604.013671875 -191.694335938 c 0
 569.5 -192.1796875 490.610351562 -219.333007812 474.221679688 -164.333007812 c 0
 451.02734375 -86.6943359375 529.638671875 -70.65234375 532 -51 c 2
 505 61.388671875 l 2
 499.331109386 84.9856750997 276.666992188 81.52734375 257.15234375 61.388671875 c 0
 243.888671875 34.1669921875 221.041992188 -35.138671875 235.90234375 -60.486328125 c 0
 237.986328125 -64.02734375 261.666992188 -71.8056640625 271.388671875 -82.5693359375 c 0
 299.375 -113.47265625 284.02734375 -150.555664062 273.47265625 -186.319335938 c 0
 237.291992188 -215.555664062 194.791992188 -188.888671875 164.305664062 -189.583007812 c 0
 124.02734375 -190.486328125 13.9580078125 -225.34765625 2.15234375 -162.5 c 0
 -11.9443359375 -87.361328125 50.4169921875 -81.6669921875 76.4580078125 -26.25 c 2
 243.541992188 617.569335938 l 2
 250.138671875 682.638671875 207.722744991 674.932996926 201.944335938 711.388671875 c 0
 195.416992188 752.569335938 208.22265625 791 251 796 c 4
 287.944335938 800.375 393.47740362 803.16367394 427.013671875 799.02734375 c 0
 458.541992188 795.138671875 489.305664062 784.72265625 514.72265625 765.90234375 c 2
 514.72265625 765.833007812 l 1
391.388671875 516.319335938 m 1
 368.055664062 520.208007812 374.65234375 516.041992188 368.055664062 502.916992188 c 0
 350.97265625 468.680664062 277.569335938 240.416992188 296.736328125 221.59765625 c 0
 328.541992188 227.638671875 444.513671875 206.111328125 453.819335938 238.819335938 c 2
 391.319335938 516.25 l 1
 391.388671875 516.319335938 l 1
EndSplineSet
Validated: 524321
EndChar

StartChar: B
Encoding: 66 66 1
Width: 737
Flags: W
HStem: -196 21G<22.0488 469.027> 662.431 138.569<274.832 369.645>
LayerCount: 2
Fore
SplineSet
17 794.97265625 m 0
 28.25 806.22265625 55.9497817052 801.985421856 72 801 c 0
 188.606631226 793.840799991 431.148861322 807.761471134 518.75 787 c 0
 672.349077639 750.597016377 751.736328125 580 682.083007812 433.611328125 c 0
 654.513671875 375.694335938 606.319335938 368.47265625 580.27734375 316.458007812 c 1
 611.180664062 278.47265625 654.861328125 260.90234375 683.125 218.611328125 c 0
 738.680664062 135.625 747.77734375 38.40234375 704.583007812 -52.013671875 c 0
 663.47265625 -138.055664062 561.665162902 -187.161470034 469.02734375 -196 c 0
 335.833007812 -208.708007812 169.375 -196 35 -196 c 0
 9.09765625 -176.139648438 -5.416015625 -135.180664062 5 -104 c 0
 13.1943359375 -79.486328125 82.1796875 -75.23828125 81 -28.125 c 0
 77.25 121.59765625 84.0680104441 270.347907571 81 420.763671875 c 0
 80.0283203125 468.40234375 80.7919921875 510.138671875 81 557.15234375 c 0
 81 570.416992188 73.3330078125 650.555664062 69.3056640625 657.361328125 c 0
 59.65234375 673.611328125 11.3698568182 676.203022269 2.4306640625 706.458007812 c 0
 -2.986328125 724.791992188 3.736328125 781.708007812 17 794.97265625 c 0
311.041992188 662.430664062 m 1
 299.06177696 661.854085799 286.947785141 658.471142131 274.236328125 652.15234375 c 2
 263.680664062 631.041992188 l 1
 274.930664062 565.97265625 232.5 449.861328125 268.819335938 393.75 c 0
 288.958007812 362.638671875 416.875 393.819335938 450.208007812 412.916992188 c 0
 545.763671875 467.638671875 536.041992188 626.319335938 422.430664062 652.638671875 c 0
 398.125 658.263671875 335.555664062 663.680664062 310.97265625 662.430664062 c 1
 311.041992188 662.430664062 l 1
292.15234375 244.583007812 m 1
 282.083007812 241.666992188 274.513671875 234.305664062 269.02734375 225.625 c 0
 257.083007812 201.388671875 259.375 -19.65234375 275.208007812 -42.013671875 c 0
 307.291992188 -87.22265625 451.388671875 -43.611328125 490.138671875 -6.0419921875 c 0
 533.541992188 36.111328125 543.333007812 115.625 518.888671875 170.138671875 c 0
 489.444335938 235.90234375 354.72265625 262.84765625 292.15234375 244.513671875 c 1
 292.15234375 244.583007812 l 1
EndSplineSet
Validated: 524321
EndChar

StartChar: C
Encoding: 67 67 2
Width: 695
Flags: W
LayerCount: 2
Fore
SplineSet
652.15234375 755.208007812 m 1
 678.40234375 730.486328125 680.763671875 607.916992188 679.930664062 567.916992188 c 0
 678.055664062 476.875 677.77734375 421.944335938 566.666992188 459.375 c 1
 527.986328125 518.680664062 533.888671875 585.763671875 466.875 626.458007812 c 0
 383.888671875 676.944335938 282.916992188 647.361328125 243.47265625 558.125 c 0
 187.77734375 432.013671875 175.97265625 94.4443359375 278.194335938 -8.75 c 0
 335.97265625 -67.0830078125 472.916992188 -51.4580078125 525.694335938 9.09765625 c 0
 565.069335938 54.3056640625 528.194335938 108.263671875 620 110.486328125 c 0
 708.125 112.638671875 694.02734375 -11.0419921875 663.40234375 -67.013671875 c 0
 576.111328125 -226.805664062 306.180664062 -235.833007812 171.944335938 -130.416992188 c 0
 -112.638671875 92.986328125 -49.5830078125 834.236328125 403.125 798.75 c 0
 454.305664062 794.72265625 511.388671875 763.125 549.236328125 759.791992188 c 0
 580.416992188 757.083007812 618.611328125 782.916992188 652.083007812 755.138671875 c 1
 652.15234375 755.208007812 l 1
EndSplineSet
Validated: 33
EndChar

StartChar: D
Encoding: 68 68 3
Width: 740
Flags: W
VStem: 83.6807 178.542<-48.4856 650.015>
LayerCount: 2
Fore
SplineSet
15 -195 m 1
 7.361328125 -185.694335938 -1.92011130821 -135.825076924 0.5556640625 -121.875 c 0
 8.5419921875 -76.875 53.40234375 -81.3193359375 63.0556640625 -65.138671875 c 0
 72.7080078125 -48.9580078125 83.5378451938 15.9157552736 83.6806640625 38.1943359375 c 0
 85 244 76.1806640625 456.736328125 78.47265625 655.416992188 c 1
 38.8193359375 673.541992188 -2.2607421875 683.95703125 0 735 c 0
 3.611328125 816.52734375 83.5584796077 801.405616753 144 800 c 0
 316 796 420.196842302 826.720554583 567.15234375 722.708007812 c 0
 762.5 584.444335938 778.582499794 131.010508886 641.319335938 -45.5556640625 c 0
 513.75 -209.65234375 384.680664062 -197.02734375 201 -198 c 0
 162.805664062 -198.208007812 42 -210 11.875 -185.416992188 c 1
 15 -195 l 1
290.625 652.77734375 m 1
 280.555664062 649.791992188 272.986328125 642.569335938 267.5 633.819335938 c 2
 262.22265625 -24.72265625 l 2
 271.25 -74.09765625 366.041992188 -47.9169921875 399.02734375 -35 c 0
 571.875 32.5693359375 556.111328125 380.625 507.5 526.111328125 c 0
 478.263671875 613.611328125 385.138671875 680.763671875 290.555664062 652.77734375 c 1
 290.625 652.77734375 l 1
EndSplineSet
Validated: 524321
EndChar

StartChar: E
Encoding: 69 69 4
Width: 697
Flags: W
HStem: -196 138.848<264.74 509.348> 777 20G<524.868 632.611>
VStem: 75.1387 189.236<-40.833 240.504 379.393 662.586>
LayerCount: 2
Fore
SplineSet
264.305664062 -40.763671875 m 1
 273.541992188 -55.6943359375 285.138671875 -55.4169921875 300.625 -57.15234375 c 0
 325.208007812 -59.9306640625 421.875 -58.9580078125 448.333007812 -56.6669921875 c 0
 550.208007812 -47.986328125 512.083007812 10.625 547.708007812 64.9306640625 c 0
 587.916992188 126.25 669.166992188 95.97265625 675 22.986328125 c 0
 678.40234375 -20.486328125 670.903279774 -123.250888527 661.805664062 -164.791992188 c 0
 653 -205 602.903320312 -195.861328125 572.625 -196 c 0
 534.5703125 -196.138671875 479.22265625 -196 444.639648438 -196 c 0
 424.84765625 -196 404.778320312 -195.930664062 382 -196 c 0
 285.680664062 -196.208007812 157.139648438 -205.791992188 65.611328125 -196 c 0
 33.3896484375 -192.52734375 3.31910288153 -179.5841563 0.5556640625 -146.041992188 c 0
 -7.5 -48.263671875 68.125 -87.77734375 75.5556640625 -20.2080078125 c 0
 60.2080078125 186.59765625 80 468 75.138671875 621.875 c 4
 72.8128848637 695.492840056 -29.1669921875 688.125 14.09765625 782.15234375 c 0
 30.763671875 793.263671875 50.0716196167 794.066264659 69.375 795.486328125 c 0
 245.90234375 808.47265625 435.736328125 796.236328125 614 797 c 0
 651.22265625 778.111328125 673.959177285 596.735953103 662.22265625 560.138671875 c 0
 650.486328125 523.541992188 588.333007812 529.583007812 559.166992188 548.47265625 c 0
 508.680664062 581.25 524.583007812 653.958007812 467.15234375 666.666992188 c 0
 433.541992188 674.09765625 285.625 675 264.09765625 653.333007812 c 0
 233.40234375 622.5 272.84765625 438.055664062 265.694335938 386.319335938 c 1
 297.638671875 373.055664062 338.680664062 368.958007812 372.638671875 376.666992188 c 0
 420.555664062 387.569335938 416.25 440.694335938 488.055664062 424.791992188 c 0
 559.861328125 408.888671875 515.90234375 316.875 536.944335938 265.069335938 c 0
 527.916992188 214.513671875 520.763671875 174.791992188 459.236328125 185.138671875 c 0
 422.15234375 191.388671875 415.694335938 235.555664062 404.305664062 238.055664062 c 0
 391.458007812 240.90234375 327.013671875 247.708007812 312.638671875 247.569335938 c 0
 298.263671875 247.430664062 281.041992188 234.861328125 264.375 237.77734375 c 1
 264.375 -40.8330078125 l 1
 264.305664062 -40.763671875 l 1
EndSplineSet
Validated: 524321
EndChar

StartChar: F
Encoding: 70 70 5
Width: 694
Flags: W
HStem: 780 20G<35.4863 659.965>
VStem: 77.708 203.125<375.167 652.292> 77.708 190.834<-58.9565 223.196>
LayerCount: 2
Fore
SplineSet
280.694335938 652.291992188 m 1xa0
 284.305664062 560.138671875 265.90234375 467.77734375 280.833007812 378.194335938 c 1xc0
 310.486328125 373.40234375 349.513671875 368.194335938 378.055664062 379.513671875 c 0
 401.388671875 388.75 406.388671875 414.375 433.888671875 419.305664062 c 0
 451.736328125 422.5 499.09765625 422.986328125 513.680664062 414.375 c 0
 541.458007812 397.916992188 541.805664062 213.680664062 532.708007812 182.430664062 c 0
 523.75 151.805664062 481.388671875 148.611328125 455 153.680664062 c 0
 422.986328125 159.861328125 428.055664062 186.944335938 412.22265625 206.666992188 c 0
 383.611328125 242.361328125 321.736328125 229.02734375 279.02734375 223.541992188 c 0
 268.055664062 216.25 269.930664062 202.84765625 268.541992188 191.52734375 c 0
 263.47265625 148.958007812 263.75 -30.2080078125 285.416992188 -58.3330078125 c 0
 297.15234375 -73.611328125 318.75 -73.9580078125 332.430664062 -85.6943359375 c 0
 361.52734375 -110.555664062 366.805664062 -182.77734375 325.416992188 -194.861328125 c 0
 297.013671875 -203.194335938 65.763671875 -200.763671875 34.3056640625 -192.15234375 c 0
 -4.09765625 -181.59765625 -6.111328125 -108.958007812 17.013671875 -82.9169921875 c 0
 50.625 -45.0693359375 75.7470530556 -83.2434638184 77.7080078125 10.4169921875 c 0
 80.829622561 159.513680821 80.5433968929 401.597662713 78.263671875 552.77734375 c 0
 77.706603786 589.719244794 77.361328125 626.778320312 75 664 c 1
 3.40234375 680.319335938 -20.5556640625 753.333007812 35.486328125 796.59765625 c 1
 644.305664062 800 l 2
 675.625 790.833007812 678.194335938 730.416992188 682.15234375 699.791992188 c 0
 688.958007812 647.083007812 686.388671875 595.90234375 682.15234375 543.055664062 c 2
 673.611328125 530.416992188 l 1
 536.180664062 490.138671875 565.90234375 591.875 524.930664062 638.125 c 0
 490.208007812 677.291992188 332.15234375 666.736328125 280.763671875 652.361328125 c 2
 280.694335938 652.291992188 l 1xa0
EndSplineSet
Validated: 524321
EndChar

StartChar: G
Encoding: 71 71 6
Width: 748
Flags: W
LayerCount: 2
Fore
SplineSet
659.72265625 776.944335938 m 0
 681.805664062 762.083007812 691.875 502.430664062 672.013671875 474.65234375 c 0
 569.930664062 401.041992188 569.72265625 503.819335938 534.09765625 564.09765625 c 0
 477.708007812 659.513671875 330.069335938 680.90234375 260.625 588.333007812 c 0
 179.305664062 479.930664062 182.916992188 131.736328125 251.736328125 14.9306640625 c 0
 325.069335938 -109.444335938 497.013671875 -59.4443359375 506.944335938 95.6943359375 c 0
 514.444335938 212.916992188 426.875 149.72265625 399.02734375 182.708007812 c 0
 368.958007812 238.125 395.90234375 300.486328125 462.430664062 302.5 c 0
 517.638671875 304.166992188 633.194335938 302.291992188 687.083007812 296.319335938 c 0
 725.416992188 292.083007812 748.75 256.52734375 743.611328125 219.02734375 c 0
 739.375 187.986328125 699.166992188 186.458007812 684.305664062 169.861328125 c 0
 648.541992188 129.65234375 684.583007812 -49.861328125 681.875 -110 c 0
 677.986328125 -196.805664062 662.361328125 -205 575.486328125 -197.22265625 c 1
 532.84765625 -155.90234375 l 1
 418.125 -223.888671875 245.416992188 -213.958007812 147.22265625 -120.34765625 c 0
 -108.75 123.680664062 -36.736328125 845.208007812 408.541992188 797.77734375 c 0
 450.763671875 793.263671875 548.888671875 747.15234375 563.819335938 747.5 c 0
 583.40234375 747.986328125 617.84765625 800 659.72265625 776.944335938 c 0
EndSplineSet
Validated: 33
EndChar

StartChar: H
Encoding: 72 72 7
Width: 827
Flags: W
HStem: 233.125 143.125<273.264 554.492>
VStem: 84.8613 188.402<-34.5137 233.125 377.153 654.52> 556.319 188.611<-61.3169 218.949 374.953 647.413>
LayerCount: 2
Fore
SplineSet
273.194335938 -34.5830078125 m 1
 281.180664062 -72.9169921875 337.916992188 -77.361328125 345.069335938 -99.09765625 c 0
 353.194335938 -123.958007812 351.666992188 -176.736328125 325.763671875 -192.083007812 c 0
 309.513671875 -200.069335938 64.9306640625 -202.430664062 37.013671875 -197.361328125 c 0
 -2.361328125 -190.138671875 -9.513671875 -128.125 11.6669921875 -98.40234375 c 0
 31.388671875 -70.6943359375 85.1164602737 -84.1782819197 84.861328125 -24.72265625 c 0
 84 176 83 400 84.375 595.069335938 c 0
 84.9675105889 679.12798838 11.91015625 678.327148438 7 711 c 0
 -12.7080078125 842.125 122 802 205 803 c 0
 244.886096734 803.480555382 314.930664062 798.486328125 314.930664062 798.486328125 c 2
 341 781 l 2
 368.569335938 756.784179688 365.675618196 699.585958596 325.34765625 668.888671875 c 0
 305.27734375 653.611328125 275.763671875 657.569335938 270 626.736328125 c 0
 265.555664062 602.77734375 271.528320313 569.513671875 270 542.708007812 c 0
 268.958984375 524.791992188 270 507.708007812 270 490.208007812 c 0
 270 460.138671875 262 381 270 379.305664062 c 0
 293.469724665 374.334964318 417.199828256 377.238199476 448.194335938 376.25 c 0
 474.436881705 375.413307569 548 371 554 379.305664062 c 0
 568.768261119 399.749033334 554.069335937 457.361328125 554 490.138671875 c 0
 553.930664062 539.583007812 561 640 554 647.84765625 c 0
 540.747789178 662.704626976 511.559378278 666.548698429 499.375 684.791992188 c 0
 461.111328125 742.083007812 497.22265625 786.041015625 558.47265625 795 c 4
 609.236328125 802.4296875 660.90234375 795.763671875 707.638671875 795 c 4
 722.430664062 794.72265625 738.958007812 796.805664062 760.27734375 795 c 4
 826.59765625 789.375 834.084495404 702.930791353 795.34765625 665.97265625 c 0
 781.736328125 652.986328125 745.763671875 657.013671875 745.416992188 626.666992188 c 0
 744.09765625 427.708007812 744.305664062 228.194335938 752.361328125 30.27734375 c 0
 752.84765625 18.611328125 744.513671875 2.9169921875 744.930664062 -13.263671875 c 0
 746.59765625 -75.34765625 779.09765625 -55.138671875 802.986328125 -81.9443359375 c 0
 826.805664062 -108.680664062 825.486328125 -184.513671875 791.111328125 -195.555664062 c 0
 770.138671875 -202.291992188 544.02734375 -200.069335938 525.27734375 -191.736328125 c 0
 492.5 -177.22265625 481.944335938 -125.763671875 503.40234375 -96.6669921875 c 0
 512.986328125 -83.6806640625 546.39774657 -82.7899673317 550.90234375 -60.27734375 c 0
 563.176589166 1.06564781483 552.457635472 29.6662515456 556.319335938 71.0419921875 c 0
 560.786131616 118.900955116 561.875 172.22265625 555.27734375 221.25 c 0
 541.805664062 240.90234375 315.97265625 235.416992188 273.263671875 233.125 c 1
 273.263671875 -34.513671875 l 1
 273.194335938 -34.5830078125 l 1
EndSplineSet
Validated: 524321
EndChar

StartChar: I
Encoding: 73 73 8
Width: 348
Flags: W
HStem: -197 109.152<290.743 338.449> 674.9 122.983<268.934 334.411>
VStem: 83.4023 182.848<-68.7803 -34.0977 -33.958 663.263>
LayerCount: 2
Fore
SplineSet
266.319335938 -33.9580078125 m 1
 266.25 -34.09765625 l 2
 267.22265625 -60.0693359375 278.47265625 -65.8330078125 290.486328125 -72.638671875 c 0
 295.763671875 -75.5556640625 314.170833078 -76.0672410141 330.833007812 -87.84765625 c 0
 362.557475065 -110.277345251 342.894282392 -177.599139621 330.958984375 -189 c 0
 318.490531854 -200.910141342 341.853515625 -193.392578125 311.069335938 -197 c 0
 294 -199 32 -209 21 -197 c 0
 1.1552734375 -175.350585938 -8.34685001181 -113.857688535 9.4443359375 -88.0556640625 c 0
 19.9306640625 -72.84765625 83.9977686169 -81.6345679574 83.40234375 -34.236328125 c 0
 81 157 89.1337890625 503.333007812 83.1884765625 600.185546875 c 0
 77 701 36.3369140625 647.057617188 15.6240234375 689.412109375 c 0
 -3.5498046875 728.620117188 6.984375 797.85546875 66.9345703125 796.025390625 c 0
 90.46484375 795.306640625 255 801 291.391601562 797.883789062 c 0
 325.375976562 794.974609375 344.282226562 776.103515625 344.443359375 737.107421875 c 0
 344.5 723.396484375 342.240234375 707.094726562 336.09375 698.477539062 c 0
 327.916992188 687.013671875 334 672 296.68359375 674.900390625 c 0
 267.823070262 677.143553892 261.800599797 634.870285057 262.013671875 603.333007812 c 2
 266.319335938 -33.9580078125 l 1
EndSplineSet
Validated: 524325
EndChar

StartChar: J
Encoding: 74 74 9
Width: 669
Flags: W
HStem: 680 115.625<580.288 647.448>
LayerCount: 2
Fore
SplineSet
593.47265625 680 m 2
 574.513671875 666.25 570.763671875 608.541992188 569.513671875 585 c 0
 560.416992188 416.805664062 602.77734375 70.90234375 537.013671875 -66.52734375 c 0
 461.52734375 -224.375 79.861328125 -257.15234375 15.6943359375 -83.5419921875 c 0
 -21.388671875 16.736328125 1.6669921875 192.15234375 145.694335938 150.069335938 c 1
 189.444335938 51.6669921875 118.055664062 -50.5556640625 265.486328125 -62.361328125 c 0
 347.361328125 -68.888671875 389.861328125 -4.4443359375 401.59765625 68.888671875 c 0
 417.569335938 168.47265625 393.040700213 479.235590344 402.916992188 583.47265625 c 4
 415 711 326 672 306.458007812 704.583007812 c 4
 289.881632946 732.221344097 283.158343552 771.63763014 315.208007812 787.430664062 c 4
 357.040473958 808.044345114 570.299093435 794.679035378 635.833007812 795.625 c 4
 654.936548166 795.900754523 666.805664062 739.65234375 661.736328125 721.319335938 c 0
 652.708007812 689.02734375 609.930664062 691.875 593.541992188 680 c 2
 593.47265625 680 l 2
EndSplineSet
Validated: 524321
EndChar

StartChar: K
Encoding: 75 75 10
Width: 831
Flags: W
HStem: -198 123.973<744.787 807.353>
VStem: 78.8887 195.764<396.319 657.884>
LayerCount: 2
Fore
SplineSet
274.583007812 396.388671875 m 1
 278.055664062 384.02734375 292.638671875 377.569335938 307.569335938 385.27734375 c 0
 330.486328125 397.15234375 504.444335938 595.694335938 517.916992188 623.611328125 c 0
 548.958007812 688.125 437.384140497 673.739781482 477.22265625 762.708007812 c 0
 501.944335938 817.916992188 596.107421875 795.283203125 640.625 795.138671875 c 0
 748.772460938 794.788085938 831.259765625 822.267578125 822.569335938 735.486328125 c 0
 814.978515625 659.684570312 754.246073896 689.639836021 701.041992188 648.194335938 c 0
 619.02734375 584.305664062 563.958007812 474.09765625 481.805664062 407.77734375 c 0
 453.40234375 364.861328125 529.513671875 305.97265625 556.944335938 263.055664062 c 0
 600.138671875 195.486328125 702.84765625 -31.0419921875 758.680664062 -65.763671875 c 0
 768.47265625 -71.8056640625 786.816475287 -67.6175627808 799.305664062 -74.02734375 c 0
 830.833007812 -90.2080078125 842.170898438 -196.821289062 798 -198 c 0
 744.916992188 -199.416992188 622.362310106 -194.524489623 546 -200 c 0
 501.737304688 -203.173828125 462 -196 460 -128.40234375 c 0
 457.910608549 -57.7833612215 512.013671875 -58.75 513.125 -41.3193359375 c 0
 494.72265625 -6.736328125 371.944335938 236.736328125 356.041992188 238.47265625 c 0
 326.875 241.736328125 283.611328125 188.680664062 277.22265625 164.166992188 c 0
 270.833007812 139.791992188 270.069335938 -4.861328125 276.875 -28.0556640625 c 0
 287.5 -64.5830078125 346.826410216 -73.4599139112 357.013671875 -90.0693359375 c 0
 372.986328125 -116.111328125 335.138671875 -190.52734375 335.138671875 -190.52734375 c 0
 322.267578125 -193.029296875 292.12109375 -201.310546875 279 -201 c 0
 239.638671875 -200.069335938 207.505860451 -200.733412833 189.638671875 -202.069335938 c 0
 170.138671875 -203.52734375 19.008603671 -210.968840433 0 -172 c 0
 -6.9443359375 -157.763671875 -1.5615234375 -88.1220703125 5 -79 c 4
 11.9443359375 -69.3466796875 89.2986569943 -66.3297694673 88.611328125 -19.09765625 c 2
 78.888671875 649.02734375 l 1
 23.3330078125 671.736328125 -10.8330078125 700.416992188 3.125 766.111328125 c 2
 16.59765625 785.625 l 1
 114.861328125 809.930664062 232.264648438 798.208984375 334 798 c 0
 358.4453125 790.153320312 362.727894391 726.241623404 352.569335938 702.15234375 c 0
 336.111328125 663.125 300.555664062 678.541992188 274.65234375 647.916992188 c 2
 274.65234375 396.319335938 l 1
 274.583007812 396.388671875 l 1
EndSplineSet
Validated: 524321
EndChar

StartChar: L
Encoding: 76 76 11
Width: 660
Flags: W
HStem: 679.583 116.417<272.43 342.116>
LayerCount: 2
Fore
SplineSet
660 82 m 5
 651.209823329 23.1308726478 686.669922798 -197.683170051 599.583007812 -197.986328125 c 6
 41.0419921875 -199.930664062 l 2
 -0.8330078125 -197.083007812 -5.34765625 -139.791992188 4.1669921875 -108.40234375 c 0
 13.263671875 -78.40234375 59.7919921875 -87.77734375 68.1943359375 -7.5693359375 c 0
 84.1669921875 144.236328125 80.97265625 454.166992188 68.75 609.02734375 c 0
 63.0556640625 681.52734375 15.0559951215 662.703935769 4.1669921875 698.40234375 c 0
 -1.3193359375 716.388671875 -1.138671875 789.208007812 14 799 c 0
 43.1669921875 798.653320312 83.0558912648 799.766477428 107.84765625 800 c 0
 129.930664062 800.208007812 166.499915352 800.031596242 189 800 c 0
 238.375 799.930664062 292 804 335 796 c 0
 361.816534933 791.010877222 356.705397693 700.696996425 337.986328125 679.583007812 c 0
 314.65234375 653.263671875 258.125 694.930664062 245.069335938 596.388671875 c 2
 248.958007812 -46.8056640625 l 1
 299.444335938 -69.09765625 448.888671875 -59.72265625 480 -12.5 c 0
 530.97265625 65 494.583007812 135.208007812 649.72265625 84.4443359375 c 1
 660 82 l 5
EndSplineSet
Validated: 524321
EndChar

StartChar: M
Encoding: 77 77 12
Width: 1001
Flags: W
HStem: 673.889 124.111<23.7958 84.4749>
VStem: 92.6387 133.361<105.366 435.87>
LayerCount: 2
Fore
SplineSet
986.458007812 681.458007812 m 0
 953.333007812 648.75 923.194335938 693.819335938 914.65234375 586.805664062 c 0
 902.291992188 432.77734375 901.282302735 139.579693135 915 -13.47265625 c 0
 922.5 -97.15234375 1007.98730469 -54.5263671875 1001 -144 c 0
 995.40234375 -215.680664062 922.939438125 -195.853108374 861.263671875 -198.125 c 0
 816.274414062 -199.782226562 710 -202.916992188 679.930664062 -183.125 c 0
 657.638671875 -168.47265625 657.77734375 -101.666992188 672.083007812 -80.138671875 c 0
 678.819335938 -70 708.888671875 -68.75 725.416992188 -56.8056640625 c 0
 761.805664062 -30.4169921875 736.666992188 -6.736328125 735.625 29.7919921875 c 0
 732.013671875 159.930664062 745.833007812 281.041992188 736.59765625 412.291992188 c 0
 735.208007812 432.013671875 739.791992188 447.430664062 720.34765625 460.694335938 c 1
 536.875 -87.84765625 l 1
 470.208007812 -132.15234375 459.166992188 -100.138671875 432.361328125 -44.513671875 c 0
 365.34765625 94.5830078125 327.5 274.444335938 263.125 412.569335938 c 0
 243.055664062 455.625 223.697794937 444.772090732 226 401.458007812 c 0
 227.157727529 379.676322509 214.52467081 -4.42483182901 241.111328125 -57.22265625 c 0
 250.272197378 -75.415013441 275.966863288 -76.6707279959 288.194335938 -95.625 c 0
 304.09765625 -120.27734375 312.402996461 -178.872645511 285 -196 c 0
 271.111328125 -204.680664062 86.5019566992 -190.988319004 56.59765625 -193.819335938 c 0
 23 -197 0.1943359375 -170.09765625 0 -131 c 0
 -0.34765625 -61.208984375 38.3330078125 -68.75 92.638671875 -50.138671875 c 1
 93.75 629.65234375 l 2
 86.8056640625 672.638671875 55.5790766219 660.333998231 31.1806640625 673.888671875 c 0
 -2.5693359375 692.638671875 -7.99857853302 787.198623952 29 798 c 0
 40.353308789 801.314488353 232.682546494 799.017980344 265 801 c 0
 276.719332844 801.718743141 284.990619408 789.2406098 289.444335938 777.986328125 c 2
 509.791992188 221.180664062 l 1
 700 795 l 2
 704.382288441 808.220483575 993.036132812 801.258789062 994 800 c 0
 1010.04199219 781.59765625 1001.93780835 696.742941758 986.458007812 681.458007812 c 0
EndSplineSet
Validated: 524321
EndChar

StartChar: N
Encoding: 78 78 13
Width: 840
Flags: W
HStem: 779 20G<528.368 834.211>
VStem: 91.042 155.208<252.601 435.486> 622.5 120.486<194.058 550.719>
LayerCount: 2
Fore
SplineSet
610.833007812 192.916992188 m 1
 612.708007812 217.291992188 620.833007812 239.236328125 622.5 264.166992188 c 0
 628.194335938 351.875 632.083007812 522.083007812 621.041992188 605.833007812 c 0
 609.72265625 691.944335938 558.496587728 664.043705001 543.819335938 685.486328125 c 0
 526.041992188 711.458007812 521.736328125 771.430664062 535 799 c 1
 588.333007812 792.958007812 834 799 834 799 c 0
 834.422851562 787.044921875 840 764.771595204 840 753 c 0
 840 675 795.625 686.666992188 742.986328125 649.236328125 c 1
 738.611328125 -194.02734375 l 2
 738.597304234 -196.730392489 597.902790899 -206.452548989 588.541992188 -188.194335938 c 2
 268.680664062 435.694335938 l 2
 248.611328125 431.458007812 247.986328125 414.166992188 246.25 397.569335938 c 0
 245.769365238 392.94577134 230.468225853 -37.073162709 257.083007812 -67.15234375 c 0
 290.694335938 -105.138671875 364 -97 322.5 -191.875 c 0
 314.667351419 -209.781567088 102.923828125 -200.012695312 63.9580078125 -204.930664062 c 0
 -28.53125 -216.603515625 -12.77734375 -73.6806640625 82.0830078125 -65 c 1
 107.912109375 172.826171875 91.774177827 566.303828695 91.0419921875 572.638671875 c 0
 89.02734375 590.069335938 78.0542856443 637.568374182 69.236328125 650.208007812 c 0
 42.638671875 688.333007812 -21 688 6 800 c 1
 112.458007812 809.375 275 797 315.069335938 730.486328125 c 0
 399.314157803 590.642921502 476.59765625 399.861328125 564.791992188 251.805664062 c 0
 576.59765625 231.944335938 589.791992188 203.819335938 610.763671875 193.055664062 c 2
 610.833007812 192.916992188 l 1
EndSplineSet
Validated: 524321
EndChar

StartChar: O
Encoding: 79 79 14
Width: 746
Flags: W
HStem: 659.514 140.278<304.255 448.671>
LayerCount: 2
Fore
SplineSet
342.430664062 799.791992188 m 0
 695.069335938 809.305664062 778.75 462.361328125 733.680664062 173.47265625 c 0
 694.72265625 -76.4580078125 504.861328125 -276.25 239.375 -171.59765625 c 0
 -111.041992188 -33.3330078125 -76.8056640625 788.47265625 342.430664062 799.791992188 c 0
383.40234375 659.444335938 m 1
 287.638671875 662.638671875 253.125 602.083007812 231.736328125 518.125 c 0
 198.541992188 387.986328125 190.069335938 150.763671875 247.986328125 28.888671875 c 0
 290.208007812 -60.0693359375 384.236328125 -79.65234375 462.638671875 -21.8056640625 c 0
 541.041992188 36.0419921875 537.708007812 166.111328125 539.166992188 253.263671875 c 0
 540.34765625 324.583007812 545.069335938 404.09765625 536.736328125 477.569335938 c 0
 527.291992188 561.180664062 477.638671875 656.388671875 383.40234375 659.513671875 c 1
 383.40234375 659.444335938 l 1
EndSplineSet
Validated: 33
EndChar

StartChar: Q
Encoding: 81 81 15
Width: 706
Flags: W
LayerCount: 2
Fore
SplineSet
429.65234375 -73.888671875 m 1
 383.47265625 -75.5556640625 350 -103.47265625 301.180664062 -102.291992188 c 0
 -104.513671875 -92.361328125 -126.666992188 898.333007812 396.52734375 792.013671875 c 0
 708.194335938 728.680664062 715.416992188 231.388671875 559.72265625 18.8193359375 c 1
 574.791992188 -62.22265625 610.625 -22.22265625 657.15234375 -23.75 c 0
 738.75 -26.4580078125 694.72265625 -162.569335938 620.694335938 -190.34765625 c 0
 520.555664062 -227.916992188 465.833007812 -154.861328125 429.65234375 -73.9580078125 c 1
 429.65234375 -73.888671875 l 1
190.625 167.708007812 m 2
 197.22265625 160.27734375 243.194335938 197.361328125 255.833007812 203.40234375 c 0
 298.263671875 223.680664062 346.25 235.90234375 393.125 221.111328125 c 0
 417.22265625 213.541992188 455.34765625 150.27734375 468.055664062 193.194335938 c 0
 472.569335938 208.40234375 478.263671875 267.291992188 479.583007812 287.5 c 0
 486.25 388.333007812 493.40234375 616.041992188 382.986328125 663.055664062 c 0
 255.833007812 717.22265625 216.59765625 619.65234375 194.930664062 514.444335938 c 0
 171.944335938 402.77734375 178.47265625 280.34765625 190.625 167.77734375 c 2
 190.625 167.708007812 l 2
251.041992188 54.9306640625 m 0
 282.15234375 21.9443359375 364.444335938 2.9169921875 383.47265625 57.013671875 c 1
 356.59765625 119.375 271.875 151.805664062 242.291992188 76.25 c 0
 242.986328125 68.611328125 245.694335938 60.5556640625 251.041992188 54.9306640625 c 0
EndSplineSet
Validated: 33
EndChar

StartChar: P
Encoding: 80 80 16
Width: 704
Flags: W
HStem: 177.848 118.819<269.767 431.614> 656.806 142.152<278.819 395.132>
VStem: 77.6387 184.861<321.911 656.351>
LayerCount: 2
Fore
SplineSet
278.888671875 177.84765625 m 1
 268.125 170.90234375 264.72265625 162.986328125 262.5 150.694335938 c 0
 257.708007812 124.444335938 257.638671875 -8.47265625 262.5 -34.513671875 c 0
 268.611328125 -67.2919921875 296.666992188 -62.15234375 316.805664062 -78.125 c 0
 356.875 -110 360.908022244 -184.48547887 301.180664062 -192.708007812 c 0
 216.13009427 -204.416725441 57.1572265625 -203.9296875 30 -196 c 0
 -11.736328125 -183.84765625 -8.59001297602 -108.338730707 11.25 -79.375 c 0
 20.763671875 -65.486328125 52.22265625 -71.25 64.375 -59.3056640625 c 0
 77.3864516451 -46.5561852066 77.3864516451 -46.5561852066 77.638671875 640.555664062 c 5
 69.7919921875 682.5 1.388671875 668.541992188 0.625 727.22265625 c 0
 -0.0693359375 778.40234375 48.1943359375 797.84765625 94.1669921875 798.958007812 c 0
 490.232238942 808.547747857 627.685137071 779.885127959 684.09765625 615.694335938 c 0
 716.944335938 520.069335938 703.333007812 331.805664062 629.09765625 257.569335938 c 0
 616.875 245.34765625 483.47265625 177.84765625 474.791992188 177.84765625 c 2
 278.888671875 177.84765625 l 1
278.888671875 656.805664062 m 1
 263.125 647.15234375 263.888671875 635.208007812 262.013671875 619.236328125 c 0
 251.388671875 529.861328125 269.791992188 418.194335938 263.888671875 326.111328125 c 0
 270.486328125 306.59765625 333.888671875 296.666992188 355.069335938 296.666992188 c 0
 492.569335938 296.666992188 532.22265625 445.90234375 508.055664062 559.444335938 c 0
 502.638671875 585 470.555664062 656.805664062 442.083007812 656.805664062 c 2
 278.819335938 656.805664062 l 1
 278.888671875 656.805664062 l 1
EndSplineSet
Validated: 524325
EndChar

StartChar: R
Encoding: 82 82 17
Width: 774
Flags: W
HStem: 655.764 143.125<276.984 458.548>
VStem: 87.083 183.611<-62.202 193.863>
LayerCount: 2
Fore
SplineSet
409.72265625 187.430664062 m 2
 386.458007812 202.77734375 276.875 209.583007812 270.694335938 183.055664062 c 0
 274.65234375 111.875 259.930664062 38.125 271.319335938 -32.4306640625 c 0
 278.958007812 -79.4443359375 358.431477773 -79.8667422996 345.486328125 -149.444335938 c 0
 333.263671875 -215.138671875 274.583984375 -200.819335938 230 -202 c 0
 182.84765625 -203.319335938 117.222691583 -199.179597204 70 -199.305664062 c 0
 18.0556640625 -199.444335938 -15.97265625 -154.375 7.638671875 -105.833007812 c 0
 25.8330078125 -68.47265625 89.513671875 -74.3056640625 87.0830078125 -22.22265625 c 0
 72.15234375 181.25 105.189040815 408.053910895 86.6669921875 608.541992188 c 0
 80.34765625 676.944335938 36.4580078125 655.263671875 0 702 c 1
 0 799 l 1
 105.416992188 799 236.945178006 804.737852127 342.361328125 798.888671875 c 0
 458.75 792.430664062 612.986328125 765.138671875 673.47265625 652.083007812 c 0
 725.625 554.65234375 706.805664062 439.375 649.72265625 349.305664062 c 0
 626.52734375 312.77734375 570 275.625 575.34765625 229.02734375 c 0
 615.833007812 161.875 636.180664062 -12.2919921875 689.09765625 -60.0693359375 c 0
 717.013671875 -85.27734375 758.262034616 -78.9617982852 761.041992188 -130.34765625 c 0
 762.638671875 -159.861328125 747.405273438 -199.03515625 715 -197 c 0
 692.1171875 -195.5625 527.15149101 -204.954682173 524.194335938 -195.069335938 c 2
 409.791992188 187.361328125 l 1
 409.72265625 187.430664062 l 2
288.888671875 655.763671875 m 1
 256.071568204 644.549349257 256.655885662 367.127243497 275.694335938 352.013671875 c 1
 419.861328125 309.305664062 508.125 365.97265625 506.180664062 519.513671875 c 0
 504.375 665.208007812 408.055664062 660.486328125 288.888671875 655.763671875 c 1
EndSplineSet
Validated: 524321
EndChar

StartChar: S
Encoding: 83 83 18
Width: 631
Flags: W
VStem: 502.042 121.736<504.401 586.585>
LayerCount: 2
Fore
SplineSet
388.819335938 166.388671875 m 1
 301.388671875 258.611328125 64.638671875 315.583007812 22 446 c 0
 -52.4443359375 673.708007812 100.132391686 820.091351147 326.513671875 793.916015625 c 0
 357.138671875 790.375 506.41796875 765.075195312 512.736328125 765.5 c 0
 521 766.055664062 556.431640625 808.186523438 597.805664062 793.90234375 c 0
 636.625 780.5 629.708007812 656.305664062 629.916992188 617 c 0
 630.125 583.805664062 631.916992188 558 623.778320312 510.638671875 c 0
 615.9453125 465.055664062 522.389648438 469.52734375 502.041992188 514.111328125 c 0
 494.194335938 531.194335938 497.736328125 551.125 491 568 c 0
 406.97265625 778.069335938 104.867399738 605.493631329 289.72265625 451.805664062 c 0
 402.986328125 357.638671875 552.666992188 348.791992188 611 189 c 0
 693.291992188 -36.27734375 522.304809119 -220.142671027 289.513671875 -198.055664062 c 0
 243.40234375 -193.680664062 175.00132529 -154.412041243 148.333007812 -155.34765625 c 0
 128.541992188 -156.041992188 26.708808304 -231.806762789 5 -158 c 0
 -2.986328125 -130.84765625 -1.5498046875 87.224609375 7 115 c 0
 20.6806640625 159.444335938 81.3680157402 160.856351217 121.52734375 142.84765625 c 0
 165.97265625 122.916992188 161.25 6.0419921875 243.958007812 -37.84765625 c 0
 387.77734375 -114.09765625 492.22265625 57.361328125 388.75 166.458007812 c 1
 388.819335938 166.388671875 l 1
EndSplineSet
Validated: 524321
EndChar

StartChar: T
Encoding: 84 84 19
Width: 715
Flags: W
HStem: 664.796 133.746<153.056 247.151>
VStem: 1.8078 138.641<583.904 664.515> 247.151 202.083<300.379 663.739>
LayerCount: 2
Fore
SplineSet
247.012695312 664.795898438 m 2
 156.250976562 676.633789062 166.693973651 694.125762755 140.448329542 598.068703448 c 0
 122.814102198 533.528773894 10.7250923925 520.959172095 1.80779911488 582.521628283 c 0
 -8.89928759329 656.440309193 10.0905242975 798.519409007 32.361328125 798.541992188 c 2
 652.568359375 799.170898438 l 2
 673.481445312 796.991210938 679.201171875 788.802734375 696 737 c 0
 716.265625 674.504882812 716.502929688 615.79296875 696.734375 555.698242188 c 1
 582.499023438 467.8515625 579.095703125 642.157226562 545.361328125 662.407226562 c 0
 520.418945312 677.37890625 455.5546875 667.791015625 449.234375 648.198242188 c 2
 457.70703125 -59.787109375 l 2
 477.499023438 -83.3984375 516.526367188 -62.8427734375 531.318359375 -107.912109375 c 0
 541.109375 -137.7734375 542.568359375 -184.37109375 506.526367188 -194.926757812 c 0
 480.762695312 -202.49609375 240.48475878 -201.606731179 208.333007812 -196.041992188 c 0
 161.388671875 -187.916992188 156.040039062 -130.690429688 183.0546875 -92.7041015625 c 0
 200.901367188 -67.5654296875 249.324341371 -72.0729119618 246.736328125 -24.4443359375 c 0
 234.59522328 198.994835433 250 554 247.151367188 664.795898438 c 5
 247.012695312 664.795898438 l 2
EndSplineSet
Validated: 524321
EndChar

StartChar: U
Encoding: 85 85 20
Width: 826
Flags: W
LayerCount: 2
Fore
SplineSet
154.861328125 -103.819335938 m 1
 69.513671875 -15.763671875 77.013671875 94.72265625 75.8330078125 208.611328125 c 0
 74.65234375 318.888671875 85.6943359375 428.611328125 76.388671875 539.791992188 c 0
 74.02734375 567.569335938 80.763671875 599.305664062 76.3193359375 625.27734375 c 0
 70.5556640625 658.47265625 14.9229636416 671.24795573 3.6806640625 713.611328125 c 0
 -24.7919921875 820.90234375 101.951168499 798.645622603 182 801 c 0
 216 802 219.889648438 800.12109375 236 800 c 0
 300.653320312 799.513671875 352.539698165 774.640510273 330.97265625 702.361328125 c 0
 319.513671875 663.958007812 267.291992188 678.75 258.263671875 582.569335938 c 0
 247.430664062 467.083007812 246.180664062 216.180664062 259.305664062 102.291992188 c 0
 279.444335938 -72.77734375 505.694335938 -101.180664062 560.97265625 65.90234375 c 0
 578.268342798 117.964524953 588.799705127 524.335938357 578.541992188 592.708007812 c 0
 568.194335938 661.736328125 511.174678897 664.164256794 490.833007812 708.680664062 c 0
 475.34765625 742.569335938 490.659179688 796.380859375 526 799 c 4
 592.888671875 803.958007812 713.64453125 800.853515625 780.888671875 799 c 5
 790.888671875 795 816.40441184 701.532759637 777.15234375 673.333007812 c 0
 755.694335938 657.916992188 721.111328125 659.305664062 718.333007812 625.138671875 c 0
 709.861328125 463.958007812 729.02734375 293.125 718.194335938 133.194335938 c 0
 711.111328125 29.236328125 690.555664062 -71.3193359375 605.625 -139.375 c 0
 485.416992188 -235.625 260.34765625 -212.84765625 154.791992188 -103.958007812 c 1
 154.861328125 -103.819335938 l 1
EndSplineSet
Validated: 524321
EndChar

StartChar: V
Encoding: 86 86 21
Width: 880
Flags: W
LayerCount: 2
Fore
SplineSet
348 801 m 1
 392.235351562 729.680664062 278.078993122 672.471738057 294.166992188 619.513671875 c 2
 448.40234375 111.805664062 l 2
 465.34765625 78.1943359375 490.625 63.8193359375 496.52734375 112.22265625 c 2
 629.583007812 630.833007812 l 4
 638.958007812 670.27734375 580 678.125 570.34765625 699.166992188 c 4
 580.97265625 775.90234375 l 4
 618.204091143 817.822900902 708.353515625 790.868164062 752 798 c 4
 799.84375 805.817382812 874 805 867.77734375 737.77734375 c 4
 863.219872644 688.5434955 814.197751635 679.96406496 786.944335938 656.666992188 c 4
 775.65167899 647.013675567 673.84375 290.94921875 673 288 c 0
 630.491210938 140.084960938 595.394050783 -8.28683173293 545.416992188 -153.263671875 c 0
 530 -197.986328125 419.72265625 -211.944335938 385.34765625 -189.65234375 c 0
 365.625 -176.875 345.27734375 -132.15234375 335.34765625 -109.65234375 c 0
 238.75 108.541992188 200.33322578 381.760738805 104.02734375 602.15234375 c 0
 78.263671875 661.111328125 63.2396885407 644.04639343 23 675 c 0
 -16 705 5 723 1.1943359375 762.916015625 c 0
 -5.17741586724 829.746650284 205.15987207 787.641087649 348 801 c 1
EndSplineSet
Validated: 524321
EndChar

StartChar: W
Encoding: 87 87 22
Width: 1349
Flags: W
HStem: 669.619 129.381<320.898 375.997 1242.23 1298.02> 693.411 105.589<15.0836 72.4453>
LayerCount: 2
Fore
SplineSet
360.977539062 799 m 0x80
 366.861328125 797.486328125 397.29296875 767.560546875 400.05078125 759.067382812 c 0
 428.184570312 673.989257812 343.78515625 697.78125 325.213867188 669.619140625 c 0x80
 295.560008749 624.602293907 416.718114722 153.414263905 421.969726562 153.284179688 c 1
 584.514648438 717.806640625 l 2
 603.9140625 799.939453125 720.123046875 825.4140625 761.49609375 744.540039062 c 0
 805.533203125 658.28515625 851.961914062 479.640625 883.221679688 380.270507812 c 0
 906.850585938 305.451171875 922.846679688 227.51953125 948.130859375 153.1171875 c 0
 965.59765625 154.713867188 966.79296875 168.838867188 971.11328125 180.608398438 c 0
 972.806527227 185.154043018 1087.10727912 625.276013228 1076.19824219 654.166015625 c 0
 1070.31445312 669.71875 1047.41715557 671.982338427 1037.30859375 683.338867188 c 0
 1003.93554688 720.83203125 986.18359375 793.040039062 1051 798 c 0
 1098.71582031 801.6171875 1237.37563377 802.184441083 1280.48535156 795.821289062 c 0
 1330.04003906 788.506835938 1359.18457031 749.163085938 1327.0078125 708.895507812 c 0
 1309.62988281 687.037109375 1266.97167969 687.541992188 1248.4921875 672.662109375 c 0
 1243.44730283 668.606711004 1100.49391002 116.616703261 1081.25683594 47.359375 c 4
 1062.77734375 -19.22265625 1057.08317397 -173.942738191 975.067382812 -190.553710938 c 0
 902.371967558 -205.276992206 894.64453125 -172.212890625 677 394 c 0
 670.932617188 409.803710938 674.061523438 391.030273438 658.340820312 401.455078125 c 1
 489.54296875 -157.4296875 l 2
 462.60546875 -209.384765625 307.435131561 -207.901637857 297.299804688 -166.2578125 c 2
 103.827148438 628.678710938 l 2
 101.8046875 674.2421875 43.607421875 677.7734375 26.875 693.411132812 c 0
 15.75 703.834960938 -4.0166015625 761.001953125 5.9130859375 777.143554688 c 0
 11.9814453125 782.102539062 26.5068359375 799 30 799 c 2x40
 360.977539062 799 l 0x80
EndSplineSet
Validated: 524321
EndChar

StartChar: X
Encoding: 88 88 23
Width: 868
Flags: W
HStem: -197 139.152<38.3692 107.744>
LayerCount: 2
Fore
SplineSet
43 -197 m 4
 9.4853515625 -196.66015625 -11.9742758989 -125.39820051 5.2080078125 -98.0556640625 c 0
 11.6669921875 -87.77734375 64.09765625 -70.625 83.6806640625 -57.84765625 c 0
 142.84765625 -19.236328125 246.736328125 159.236328125 282.15234375 228.194335938 c 0
 325.416992188 312.361328125 318.541992188 315.694335938 275.138671875 397.15234375 c 0
 249.72265625 444.861328125 141.944335938 645.069335938 107.77734375 660.486328125 c 0
 89.72265625 668.680664062 48.4479774119 662.111434636 47.986328125 676.111328125 c 2
 44 797 l 1
 116.916992188 801.791992188 305 806 362 800 c 0
 447.486297401 791.001442379 354.255119688 683.813633964 346.59765625 658.611328125 c 0
 330.625 606.041992188 423.055664062 497.5 463.194335938 461.59765625 c 1
 483.541992188 539.236328125 634.861328125 651.59765625 505.833007812 694.65234375 c 1
 502.986328125 741.59765625 506 804 561 802 c 0
 563.608754657 801.905136194 821.237304688 798.622070312 822 797 c 0
 864.430664062 695.888671875 802.111820201 697.454172581 750 664.72265625 c 0
 733.194335938 654.166992188 593.958007812 413.194335938 575.90234375 375.833007812 c 0
 552.361328125 327.083007812 541.875 309.166992188 566.736328125 257.986328125 c 0
 599.444335938 190.625 724.09765625 -16.52734375 775.27734375 -60.97265625 c 0
 794.09765625 -77.361328125 821.333711617 -84.0144801312 834.444335938 -98.6806640625 c 0
 866.041992188 -134.02734375 848 -195 802.361328125 -195.138671875 c 0
 769.799804688 -195.237304688 527.204356517 -207.388818275 506 -198 c 0
 450.791015625 -173.5546875 492.176421297 -113.651445311 526.59765625 -64.5830078125 c 0
 542.916992188 -41.3193359375 438.333007812 114.02734375 425.27734375 148.888671875 c 2
 398.888671875 160 l 1
 384.930664062 116.52734375 266.25 -29.9306640625 295.694335938 -66.9443359375 c 0
 308.541992188 -83.0556640625 337.631002778 -60.6952341137 344.02734375 -115.27734375 c 0
 348.055664062 -149.65234375 349.094726562 -197.116210938 312.166992188 -197 c 4
 224.180664062 -196.72265625 114.180664062 -197.72265625 43 -197 c 4
EndSplineSet
Validated: 524321
EndChar

StartChar: Y
Encoding: 89 89 24
Width: 847
Flags: W
HStem: 674.583 123.417<15.8863 87.9948>
LayerCount: 2
Fore
SplineSet
540 822 m 1024
341 800 m 0
 376.162887166 795.863189745 364.17808333 719.64318344 340.833007812 691.388671875 c 0
 327.291992188 675 293.055664062 670.625 294.583007812 644.375 c 2
 422.638671875 366.388671875 l 2
 447.638671875 361.52734375 439.791992188 368.541992188 446.59765625 380.27734375 c 0
 470.555664062 421.59765625 557.430664062 587.5 561.041992188 623.680664062 c 0
 566.666992188 680.90234375 515.89652571 677.846657017 508.958007812 718.263671875 c 0
 504.936578143 741.688585535 500.878842665 796.542564493 523 799 c 0
 568.87890625 804.096679688 676.399414062 801.592773438 762 798 c 0
 808.319335938 796.055664062 815 808 821.111328125 747.84765625 c 0
 828.268401079 677.402295808 752.291992188 671.041992188 716.319335938 618.75 c 0
 685.625 574.09765625 508.194335938 254.583007812 500.555664062 217.916992188 c 0
 494.09765625 187.083007812 492.5 -11.6669921875 500.208007812 -37.361328125 c 0
 516.875 -75.4169921875 577.708007812 -71.1806640625 584.930664062 -115.486328125 c 0
 588.680664062 -138.47265625 580.763671875 -186.59765625 556.041992188 -194.513671875 c 0
 532.013671875 -202.22265625 322.708007812 -200.625 286.736328125 -196.736328125 c 0
 247.15234375 -192.430664062 237.638671875 -175.97265625 237.5 -136.736328125 c 0
 237.291992188 -69.72265625 274.166992188 -91.1806640625 304.02734375 -61.52734375 c 0
 350.27734375 -15.486328125 302.083007812 158.611328125 309.513671875 226.319335938 c 1
 241.805664062 354.861328125 179.09765625 514.791992188 102.430664062 635.90234375 c 0
 73.8193359375 681.111328125 49.1454516441 659.129209534 22.0830078125 674.583007812 c 0
 -1.388671875 687.986328125 -10.2121574126 798.223906011 18 798 c 0
 144 797 307 804 341 800 c 0
EndSplineSet
Validated: 524321
EndChar

StartChar: Z
Encoding: 90 90 25
Width: 652
Flags: W
HStem: -197 142.396<224.604 467.29>
LayerCount: 2
Fore
SplineSet
224.603515625 -54.603515625 m 1
 438.14453125 -54.603515625 l 2
 483.874023438 -54.603515625 499.1875 66.23046875 523.14453125 81.54296875 c 0
 573.76953125 113.729492188 632.83203125 89.4599609375 631.791015625 23.521484375 c 0
 631.166015625 -10.9580078125 622.416015625 -100.852539062 615.228515625 -133.14453125 c 0
 611.791015625 -148.45703125 610.383375316 -168.844625599 597 -177 c 0
 552.728515625 -203.977539062 502.853515625 -197.47265625 459 -198 c 4
 363.688476562 -199.145507812 265.450547145 -197 172 -197 c 0
 145 -197 5.18188509872 -233.250198361 5.541015625 -122.103515625 c 0
 5.7490234375 -57.7275390625 94.1875 59.8759765625 125.853515625 122.376953125 c 0
 172.9375 215.29296875 213.14453125 311.333984375 260.749023438 404.146484375 c 2
 380.853515625 638.208984375 l 2
 387.764471646 651.677220359 193.561523438 669.45703125 174.291992188 665.291015625 c 0
 127.311523438 646.125 147.3125 493.520507812 33.2490234375 528.416015625 c 0
 -20.083984375 558.208007812 5.3330078125 603.311523438 5.8544921875 645.811523438 c 0
 6.2705078125 677.374023438 -7.61067723683 788.437243883 18.2490234375 794.874023438 c 0
 75 809 142.833704989 797.122828715 197 798 c 0
 306.270507812 799.76953125 479.849609375 800.77734375 591 792 c 0
 649.021484375 787.41796875 632.469845763 726.892724983 605.01953125 674.354492188 c 0
 522.728515625 516.854492188 448.041015625 354.250976562 361.6875 198.9375 c 0
 316.26953125 117.16796875 243.76953125 37.48046875 224.5 -54.4990234375 c 1
 224.603515625 -54.603515625 l 1
EndSplineSet
Validated: 524321
EndChar
